<svg xmlns="http://www.w3.org/2000/svg" xmlns:xlink="http://www.w3.org/1999/xlink" width="750" viewBox="0 0 562.5 187.499995" height="250" preserveAspectRatio="xMidYMid meet"><defs><g></g><clipPath id="5ac21df373"><path d="M 5 20.914062 L 100 20.914062 L 100 161.664062 L 5 161.664062 Z M 5 20.914062 " clip-rule="nonzero"></path></clipPath><clipPath id="53a01741fe"><path d="M 332 39 L 357.664062 39 L 357.664062 78 L 332 78 Z M 332 39 " clip-rule="nonzero"></path></clipPath></defs><g fill="#000000" fill-opacity="1"><g transform="translate(109.342488, 81.511165)"><g><path d="M 43.046875 0 L 38.796875 -14.09375 L 19.015625 -14.09375 L 14.765625 0 L 1.703125 0 L 21.21875 -59.25 L 37.1875 -59.25 L 56.453125 0 Z M 29.03125 -47.53125 L 28.609375 -47.53125 L 22.078125 -25.046875 L 35.65625 -25.046875 Z M 29.03125 -47.53125 "></path></g></g></g><g fill="#000000" fill-opacity="1"><g transform="translate(167.485586, 81.511165)"><g><path d="M 32.171875 -7.46875 L 31.75 -7.46875 C 31.351562 -6.332031 30.828125 -5.253906 30.171875 -4.234375 C 29.523438 -3.222656 28.691406 -2.320312 27.671875 -1.53125 C 26.648438 -0.738281 25.445312 -0.117188 24.0625 0.328125 C 22.675781 0.785156 21.078125 1.015625 19.265625 1.015625 C 14.679688 1.015625 11.210938 -0.492188 8.859375 -3.515625 C 6.515625 -6.546875 5.34375 -10.890625 5.34375 -16.546875 L 5.34375 -44.5625 L 17.90625 -44.5625 L 17.90625 -17.65625 C 17.90625 -14.9375 18.382812 -12.84375 19.34375 -11.375 C 20.3125 -9.90625 21.957031 -9.171875 24.28125 -9.171875 C 25.238281 -9.171875 26.195312 -9.3125 27.15625 -9.59375 C 28.125 -9.875 28.972656 -10.28125 29.703125 -10.8125 C 30.441406 -11.351562 31.035156 -12.019531 31.484375 -12.8125 C 31.941406 -13.601562 32.171875 -14.539062 32.171875 -15.625 L 32.171875 -44.5625 L 44.734375 -44.5625 L 44.734375 0 L 32.171875 0 Z M 32.171875 -7.46875 "></path></g></g></g><g fill="#000000" fill-opacity="1"><g transform="translate(218.074332, 81.511165)"><g><path d="M 21.484375 0 C 17.117188 0 13.816406 -1.101562 11.578125 -3.3125 C 9.347656 -5.519531 8.234375 -8.742188 8.234375 -12.984375 L 8.234375 -34.8125 L 1.953125 -34.8125 L 1.953125 -44.5625 L 5.09375 -44.5625 C 6.789062 -44.5625 7.945312 -44.972656 8.5625 -45.796875 C 9.1875 -46.617188 9.5 -47.796875 9.5 -49.328125 L 9.5 -56.625 L 20.796875 -56.625 L 20.796875 -44.5625 L 29.625 -44.5625 L 29.625 -34.8125 L 20.796875 -34.8125 L 20.796875 -9.765625 L 28.953125 -9.765625 L 28.953125 0 Z M 21.484375 0 "></path></g></g></g><g fill="#000000" fill-opacity="1"><g transform="translate(250.583542, 81.511165)"><g><path d="M 23.9375 1.015625 C 20.65625 1.015625 17.726562 0.476562 15.15625 -0.59375 C 12.582031 -1.664062 10.398438 -3.21875 8.609375 -5.25 C 6.828125 -7.289062 5.457031 -9.753906 4.5 -12.640625 C 3.539062 -15.535156 3.0625 -18.765625 3.0625 -22.328125 C 3.0625 -25.890625 3.539062 -29.113281 4.5 -32 C 5.457031 -34.882812 6.828125 -37.332031 8.609375 -39.34375 C 10.398438 -41.351562 12.582031 -42.894531 15.15625 -43.96875 C 17.726562 -45.050781 20.65625 -45.59375 23.9375 -45.59375 C 27.21875 -45.59375 30.144531 -45.050781 32.71875 -43.96875 C 35.300781 -42.894531 37.484375 -41.351562 39.265625 -39.34375 C 41.046875 -37.332031 42.414062 -34.882812 43.375 -32 C 44.34375 -29.113281 44.828125 -25.890625 44.828125 -22.328125 C 44.828125 -18.765625 44.34375 -15.535156 43.375 -12.640625 C 42.414062 -9.753906 41.046875 -7.289062 39.265625 -5.25 C 37.484375 -3.21875 35.300781 -1.664062 32.71875 -0.59375 C 30.144531 0.476562 27.21875 1.015625 23.9375 1.015625 Z M 23.9375 -8.90625 C 26.425781 -8.90625 28.347656 -9.671875 29.703125 -11.203125 C 31.066406 -12.734375 31.75 -14.910156 31.75 -17.734375 L 31.75 -26.828125 C 31.75 -29.648438 31.066406 -31.828125 29.703125 -33.359375 C 28.347656 -34.890625 26.425781 -35.65625 23.9375 -35.65625 C 21.445312 -35.65625 19.519531 -34.890625 18.15625 -33.359375 C 16.800781 -31.828125 16.125 -29.648438 16.125 -26.828125 L 16.125 -17.734375 C 16.125 -14.910156 16.800781 -12.734375 18.15625 -11.203125 C 19.519531 -9.671875 21.445312 -8.90625 23.9375 -8.90625 Z M 23.9375 -8.90625 "></path></g></g></g><g fill="#000000" fill-opacity="1"><g transform="translate(109.342488, 159.372862)"><g><path d="M 28.78125 1.015625 C 21.25 1.015625 15.390625 -1.539062 11.203125 -6.65625 C 7.015625 -11.78125 4.921875 -19.320312 4.921875 -29.28125 C 4.921875 -39.25 7.015625 -46.90625 11.203125 -52.25 C 15.390625 -57.59375 21.25 -60.265625 28.78125 -60.265625 C 33.757812 -60.265625 37.929688 -59.132812 41.296875 -56.875 C 44.660156 -54.613281 47.28125 -51.414062 49.15625 -47.28125 L 43.375 -43.796875 C 42.1875 -46.859375 40.375 -49.304688 37.9375 -51.140625 C 35.507812 -52.984375 32.457031 -53.90625 28.78125 -53.90625 C 26.226562 -53.90625 23.945312 -53.421875 21.9375 -52.453125 C 19.9375 -51.492188 18.238281 -50.125 16.84375 -48.34375 C 15.457031 -46.5625 14.394531 -44.4375 13.65625 -41.96875 C 12.925781 -39.507812 12.5625 -36.753906 12.5625 -33.703125 L 12.5625 -24.875 C 12.5625 -18.757812 13.972656 -13.972656 16.796875 -10.515625 C 19.628906 -7.066406 23.625 -5.34375 28.78125 -5.34375 C 32.570312 -5.34375 35.738281 -6.316406 38.28125 -8.265625 C 40.832031 -10.222656 42.703125 -12.816406 43.890625 -16.046875 L 49.578125 -12.484375 C 47.710938 -8.296875 45.023438 -5 41.515625 -2.59375 C 38.003906 -0.1875 33.757812 1.015625 28.78125 1.015625 Z M 28.78125 1.015625 "></path></g></g></g><g fill="#000000" fill-opacity="1"><g transform="translate(162.053238, 159.372862)"><g><path d="M 14.4375 0 C 12.050781 0 10.25 -0.660156 9.03125 -1.984375 C 7.820312 -3.316406 7.21875 -5.003906 7.21875 -7.046875 L 7.21875 -62.8125 L 14 -62.8125 L 14 -5.9375 L 20.453125 -5.9375 L 20.453125 0 Z M 14.4375 0 "></path></g></g></g><g fill="#000000" fill-opacity="1"><g transform="translate(185.140715, 159.372862)"><g><path d="M 39.046875 0 C 36.503906 0 34.679688 -0.675781 33.578125 -2.03125 C 32.472656 -3.394531 31.78125 -5.09375 31.5 -7.125 L 31.0625 -7.125 C 30.101562 -4.414062 28.519531 -2.378906 26.3125 -1.015625 C 24.101562 0.335938 21.472656 1.015625 18.421875 1.015625 C 13.773438 1.015625 10.164062 -0.171875 7.59375 -2.546875 C 5.019531 -4.921875 3.734375 -8.144531 3.734375 -12.21875 C 3.734375 -16.351562 5.242188 -19.523438 8.265625 -21.734375 C 11.296875 -23.941406 16.007812 -25.046875 22.40625 -25.046875 L 31.0625 -25.046875 L 31.0625 -29.375 C 31.0625 -32.488281 30.210938 -34.863281 28.515625 -36.5 C 26.816406 -38.144531 24.21875 -38.96875 20.71875 -38.96875 C 18.050781 -38.96875 15.828125 -38.375 14.046875 -37.1875 C 12.265625 -36 10.78125 -34.410156 9.59375 -32.421875 L 5.515625 -36.25 C 6.703125 -38.625 8.597656 -40.644531 11.203125 -42.3125 C 13.804688 -43.988281 17.085938 -44.828125 21.046875 -44.828125 C 26.367188 -44.828125 30.5 -43.523438 33.4375 -40.921875 C 36.382812 -38.316406 37.859375 -34.691406 37.859375 -30.046875 L 37.859375 -5.9375 L 42.875 -5.9375 L 42.875 0 Z M 19.53125 -4.75 C 21.226562 -4.75 22.78125 -4.945312 24.1875 -5.34375 C 25.601562 -5.738281 26.820312 -6.304688 27.84375 -7.046875 C 28.863281 -7.785156 29.65625 -8.632812 30.21875 -9.59375 C 30.78125 -10.550781 31.0625 -11.597656 31.0625 -12.734375 L 31.0625 -19.953125 L 22.078125 -19.953125 C 18.171875 -19.953125 15.320312 -19.382812 13.53125 -18.25 C 11.75 -17.113281 10.859375 -15.472656 10.859375 -13.328125 L 10.859375 -11.546875 C 10.859375 -9.390625 11.632812 -7.71875 13.1875 -6.53125 C 14.75 -5.34375 16.863281 -4.75 19.53125 -4.75 Z M 19.53125 -4.75 "></path></g></g></g><g fill="#000000" fill-opacity="1"><g transform="translate(230.46687, 159.372862)"><g><path d="M 20.375 1.015625 C 16.300781 1.015625 12.890625 0.238281 10.140625 -1.3125 C 7.398438 -2.875 5.039062 -4.957031 3.0625 -7.5625 L 7.890625 -11.453125 C 9.585938 -9.304688 11.484375 -7.648438 13.578125 -6.484375 C 15.671875 -5.328125 18.109375 -4.75 20.890625 -4.75 C 23.773438 -4.75 26.019531 -5.367188 27.625 -6.609375 C 29.238281 -7.859375 30.046875 -9.617188 30.046875 -11.890625 C 30.046875 -13.585938 29.492188 -15.039062 28.390625 -16.25 C 27.285156 -17.46875 25.289062 -18.304688 22.40625 -18.765625 L 18.9375 -19.265625 C 16.894531 -19.546875 15.023438 -19.984375 13.328125 -20.578125 C 11.628906 -21.179688 10.144531 -21.976562 8.875 -22.96875 C 7.601562 -23.957031 6.613281 -25.1875 5.90625 -26.65625 C 5.195312 -28.125 4.84375 -29.878906 4.84375 -31.921875 C 4.84375 -34.066406 5.238281 -35.945312 6.03125 -37.5625 C 6.820312 -39.175781 7.910156 -40.519531 9.296875 -41.59375 C 10.679688 -42.664062 12.332031 -43.472656 14.25 -44.015625 C 16.175781 -44.554688 18.242188 -44.828125 20.453125 -44.828125 C 24.023438 -44.828125 27.007812 -44.203125 29.40625 -42.953125 C 31.8125 -41.710938 33.921875 -39.988281 35.734375 -37.78125 L 31.234375 -33.703125 C 30.273438 -35.054688 28.859375 -36.285156 26.984375 -37.390625 C 25.117188 -38.492188 22.773438 -39.046875 19.953125 -39.046875 C 17.117188 -39.046875 14.976562 -38.4375 13.53125 -37.21875 C 12.09375 -36.007812 11.375 -34.359375 11.375 -32.265625 C 11.375 -30.109375 12.09375 -28.546875 13.53125 -27.578125 C 14.976562 -26.617188 17.0625 -25.914062 19.78125 -25.46875 L 23.171875 -24.953125 C 28.035156 -24.222656 31.488281 -22.820312 33.53125 -20.75 C 35.570312 -18.6875 36.59375 -15.988281 36.59375 -12.65625 C 36.59375 -8.40625 35.144531 -5.0625 32.25 -2.625 C 29.363281 -0.195312 25.40625 1.015625 20.375 1.015625 Z M 20.375 1.015625 "></path></g></g></g><g fill="#000000" fill-opacity="1"><g transform="translate(271.80364, 159.372862)"><g><path d="M 20.375 1.015625 C 16.300781 1.015625 12.890625 0.238281 10.140625 -1.3125 C 7.398438 -2.875 5.039062 -4.957031 3.0625 -7.5625 L 7.890625 -11.453125 C 9.585938 -9.304688 11.484375 -7.648438 13.578125 -6.484375 C 15.671875 -5.328125 18.109375 -4.75 20.890625 -4.75 C 23.773438 -4.75 26.019531 -5.367188 27.625 -6.609375 C 29.238281 -7.859375 30.046875 -9.617188 30.046875 -11.890625 C 30.046875 -13.585938 29.492188 -15.039062 28.390625 -16.25 C 27.285156 -17.46875 25.289062 -18.304688 22.40625 -18.765625 L 18.9375 -19.265625 C 16.894531 -19.546875 15.023438 -19.984375 13.328125 -20.578125 C 11.628906 -21.179688 10.144531 -21.976562 8.875 -22.96875 C 7.601562 -23.957031 6.613281 -25.1875 5.90625 -26.65625 C 5.195312 -28.125 4.84375 -29.878906 4.84375 -31.921875 C 4.84375 -34.066406 5.238281 -35.945312 6.03125 -37.5625 C 6.820312 -39.175781 7.910156 -40.519531 9.296875 -41.59375 C 10.679688 -42.664062 12.332031 -43.472656 14.25 -44.015625 C 16.175781 -44.554688 18.242188 -44.828125 20.453125 -44.828125 C 24.023438 -44.828125 27.007812 -44.203125 29.40625 -42.953125 C 31.8125 -41.710938 33.921875 -39.988281 35.734375 -37.78125 L 31.234375 -33.703125 C 30.273438 -35.054688 28.859375 -36.285156 26.984375 -37.390625 C 25.117188 -38.492188 22.773438 -39.046875 19.953125 -39.046875 C 17.117188 -39.046875 14.976562 -38.4375 13.53125 -37.21875 C 12.09375 -36.007812 11.375 -34.359375 11.375 -32.265625 C 11.375 -30.109375 12.09375 -28.546875 13.53125 -27.578125 C 14.976562 -26.617188 17.0625 -25.914062 19.78125 -25.46875 L 23.171875 -24.953125 C 28.035156 -24.222656 31.488281 -22.820312 33.53125 -20.75 C 35.570312 -18.6875 36.59375 -15.988281 36.59375 -12.65625 C 36.59375 -8.40625 35.144531 -5.0625 32.25 -2.625 C 29.363281 -0.195312 25.40625 1.015625 20.375 1.015625 Z M 20.375 1.015625 "></path></g></g></g><g fill="#000000" fill-opacity="1"><g transform="translate(313.13285, 159.372862)"><g><path d="M 5.859375 0 L 5.859375 -44.5625 L 18.421875 -44.5625 L 18.421875 -37.015625 L 18.9375 -37.015625 C 19.726562 -39.390625 21.082031 -41.410156 23 -43.078125 C 24.925781 -44.753906 27.5625 -45.59375 30.90625 -45.59375 C 33.957031 -45.59375 36.554688 -44.828125 38.703125 -43.296875 C 40.859375 -41.765625 42.414062 -39.53125 43.375 -36.59375 L 43.640625 -36.59375 C 44.035156 -37.832031 44.640625 -39.003906 45.453125 -40.109375 C 46.273438 -41.210938 47.28125 -42.160156 48.46875 -42.953125 C 49.65625 -43.742188 50.984375 -44.378906 52.453125 -44.859375 C 53.929688 -45.347656 55.519531 -45.59375 57.21875 -45.59375 C 61.519531 -45.59375 64.816406 -44.0625 67.109375 -41 C 69.398438 -37.945312 70.546875 -33.585938 70.546875 -27.921875 L 70.546875 0 L 57.984375 0 L 57.984375 -26.90625 C 57.984375 -32.570312 55.945312 -35.40625 51.875 -35.40625 C 50 -35.40625 48.296875 -34.863281 46.765625 -33.78125 C 45.242188 -32.707031 44.484375 -31.066406 44.484375 -28.859375 L 44.484375 0 L 31.921875 0 L 31.921875 -26.90625 C 31.921875 -32.570312 29.882812 -35.40625 25.8125 -35.40625 C 24.90625 -35.40625 24.007812 -35.273438 23.125 -35.015625 C 22.25 -34.765625 21.457031 -34.351562 20.75 -33.78125 C 20.039062 -33.21875 19.472656 -32.523438 19.046875 -31.703125 C 18.628906 -30.878906 18.421875 -29.929688 18.421875 -28.859375 L 18.421875 0 Z M 5.859375 0 "></path></g></g></g><g fill="#000000" fill-opacity="1"><g transform="translate(389.015968, 159.372862)"><g><path d="M 38.796875 0 C 36.535156 0 34.65625 -0.707031 33.15625 -2.125 C 31.65625 -3.539062 30.707031 -5.4375 30.3125 -7.8125 L 29.796875 -7.8125 C 29.117188 -4.925781 27.617188 -2.734375 25.296875 -1.234375 C 22.972656 0.265625 20.113281 1.015625 16.71875 1.015625 C 12.25 1.015625 8.828125 -0.171875 6.453125 -2.546875 C 4.078125 -4.921875 2.890625 -8.0625 2.890625 -11.96875 C 2.890625 -16.664062 4.597656 -20.160156 8.015625 -22.453125 C 11.441406 -24.742188 16.097656 -25.890625 21.984375 -25.890625 L 29.03125 -25.890625 L 29.03125 -28.6875 C 29.03125 -30.84375 28.460938 -32.554688 27.328125 -33.828125 C 26.203125 -35.097656 24.304688 -35.734375 21.640625 -35.734375 C 19.148438 -35.734375 17.171875 -35.195312 15.703125 -34.125 C 14.234375 -33.050781 13.015625 -31.832031 12.046875 -30.46875 L 4.578125 -37.09375 C 6.390625 -39.757812 8.664062 -41.84375 11.40625 -43.34375 C 14.15625 -44.84375 17.878906 -45.59375 22.578125 -45.59375 C 28.921875 -45.59375 33.675781 -44.203125 36.84375 -41.421875 C 40.007812 -38.648438 41.59375 -34.601562 41.59375 -29.28125 L 41.59375 -9.765625 L 45.75 -9.765625 L 45.75 0 Z M 21.390625 -7.71875 C 23.484375 -7.71875 25.28125 -8.171875 26.78125 -9.078125 C 28.28125 -9.984375 29.03125 -11.457031 29.03125 -13.5 L 29.03125 -18.765625 L 22.921875 -18.765625 C 17.992188 -18.765625 15.53125 -17.09375 15.53125 -13.75 L 15.53125 -12.484375 C 15.53125 -10.835938 16.039062 -9.628906 17.0625 -8.859375 C 18.082031 -8.097656 19.523438 -7.71875 21.390625 -7.71875 Z M 21.390625 -7.71875 "></path></g></g></g><g fill="#000000" fill-opacity="1"><g transform="translate(437.312938, 159.372862)"><g><path d="M 21.484375 0 C 17.117188 0 13.816406 -1.101562 11.578125 -3.3125 C 9.347656 -5.519531 8.234375 -8.742188 8.234375 -12.984375 L 8.234375 -34.8125 L 1.953125 -34.8125 L 1.953125 -44.5625 L 5.09375 -44.5625 C 6.789062 -44.5625 7.945312 -44.972656 8.5625 -45.796875 C 9.1875 -46.617188 9.5 -47.796875 9.5 -49.328125 L 9.5 -56.625 L 20.796875 -56.625 L 20.796875 -44.5625 L 29.625 -44.5625 L 29.625 -34.8125 L 20.796875 -34.8125 L 20.796875 -9.765625 L 28.953125 -9.765625 L 28.953125 0 Z M 21.484375 0 "></path></g></g></g><g fill="#000000" fill-opacity="1"><g transform="translate(469.822149, 159.372862)"><g><path d="M 24.453125 1.015625 C 21.054688 1.015625 18.023438 0.460938 15.359375 -0.640625 C 12.703125 -1.742188 10.453125 -3.296875 8.609375 -5.296875 C 6.773438 -7.304688 5.390625 -9.753906 4.453125 -12.640625 C 3.523438 -15.535156 3.0625 -18.765625 3.0625 -22.328125 C 3.0625 -25.835938 3.507812 -29.019531 4.40625 -31.875 C 5.3125 -34.726562 6.65625 -37.175781 8.4375 -39.21875 C 10.226562 -41.257812 12.425781 -42.832031 15.03125 -43.9375 C 17.632812 -45.039062 20.601562 -45.59375 23.9375 -45.59375 C 27.613281 -45.59375 30.769531 -44.96875 33.40625 -43.71875 C 36.039062 -42.46875 38.191406 -40.796875 39.859375 -38.703125 C 41.523438 -36.609375 42.738281 -34.1875 43.5 -31.4375 C 44.269531 -28.695312 44.65625 -25.828125 44.65625 -22.828125 L 44.65625 -19.09375 L 16.046875 -19.09375 L 16.046875 -18.421875 C 16.046875 -15.472656 16.835938 -13.132812 18.421875 -11.40625 C 20.003906 -9.6875 22.492188 -8.828125 25.890625 -8.828125 C 28.492188 -8.828125 30.613281 -9.347656 32.25 -10.390625 C 33.894531 -11.441406 35.425781 -12.703125 36.84375 -14.171875 L 43.125 -6.359375 C 41.144531 -4.046875 38.554688 -2.238281 35.359375 -0.9375 C 32.160156 0.363281 28.523438 1.015625 24.453125 1.015625 Z M 24.1875 -36.328125 C 21.644531 -36.328125 19.648438 -35.492188 18.203125 -33.828125 C 16.765625 -32.160156 16.046875 -29.941406 16.046875 -27.171875 L 16.046875 -26.484375 L 31.671875 -26.484375 L 31.671875 -27.25 C 31.671875 -29.96875 31.0625 -32.160156 29.84375 -33.828125 C 28.625 -35.492188 26.738281 -36.328125 24.1875 -36.328125 Z M 24.1875 -36.328125 "></path></g></g></g><g clip-path="url(#5ac21df373)"><path fill="#000000" d="M 81.480469 44.371094 L 96.992188 39.738281 C 97.296875 39.648438 97.578125 39.515625 97.839844 39.332031 C 98.101562 39.152344 98.324219 38.9375 98.515625 38.683594 C 98.707031 38.429688 98.851562 38.152344 98.953125 37.851562 C 99.054688 37.550781 99.101562 37.238281 99.101562 36.921875 C 99.101562 36.605469 99.054688 36.296875 98.953125 35.996094 C 98.851562 35.695312 98.707031 35.417969 98.515625 35.164062 C 98.324219 34.910156 98.101562 34.691406 97.839844 34.511719 C 97.578125 34.332031 97.296875 34.195312 96.992188 34.109375 L 53.007812 20.914062 C 51.804688 20.5625 55.46875 19.679688 7.320312 34.109375 C 7.019531 34.195312 6.734375 34.332031 6.472656 34.511719 C 6.214844 34.691406 5.988281 34.910156 5.796875 35.164062 C 5.605469 35.417969 5.460938 35.695312 5.363281 35.996094 C 5.261719 36.296875 5.210938 36.605469 5.210938 36.921875 C 5.210938 37.238281 5.261719 37.550781 5.363281 37.851562 C 5.460938 38.152344 5.605469 38.429688 5.796875 38.683594 C 5.988281 38.9375 6.214844 39.152344 6.472656 39.332031 C 6.734375 39.515625 7.019531 39.648438 7.320312 39.738281 L 11.105469 40.96875 L 11.105469 59.03125 C 11.105469 59.421875 11.179688 59.796875 11.328125 60.15625 C 11.476562 60.511719 11.6875 60.832031 11.964844 61.105469 C 12.238281 61.378906 12.554688 61.59375 12.914062 61.742188 C 13.273438 61.890625 13.648438 61.964844 14.039062 61.964844 C 14.425781 61.964844 14.800781 61.890625 15.160156 61.742188 C 15.519531 61.59375 15.835938 61.378906 16.109375 61.105469 C 16.386719 60.832031 16.597656 60.511719 16.746094 60.15625 C 16.894531 59.796875 16.96875 59.421875 16.96875 59.03125 L 16.96875 42.730469 L 22.835938 44.371094 C 22.835938 73.898438 22.304688 73.695312 24.242188 76.421875 C 23.570312 78.496094 23.140625 80.617188 22.945312 82.785156 C 22.753906 84.957031 22.800781 87.121094 23.09375 89.28125 C 23.386719 91.441406 23.914062 93.539062 24.675781 95.582031 C 25.4375 97.621094 26.417969 99.554688 27.613281 101.375 C 29.796875 104.546875 31.480469 107.960938 32.664062 111.625 C 33.847656 115.289062 34.480469 119.046875 34.5625 122.898438 C 34.136719 123.285156 33.753906 123.707031 33.410156 124.167969 C 33.070312 124.632812 32.773438 125.121094 32.527344 125.640625 C 32.28125 126.160156 32.089844 126.699219 31.949219 127.253906 C 31.808594 127.8125 31.722656 128.378906 31.691406 128.953125 C 31.664062 129.527344 31.6875 130.097656 31.769531 130.664062 C 31.851562 131.234375 31.988281 131.789062 32.179688 132.332031 C 32.371094 132.875 32.613281 133.390625 32.90625 133.886719 C 33.199219 134.382812 33.535156 134.84375 33.917969 135.273438 C 33.675781 135.542969 33.453125 135.828125 33.25 136.128906 C 33.042969 136.429688 32.855469 136.738281 32.691406 137.0625 C 32.523438 137.382812 32.375 137.714844 32.25 138.054688 C 32.125 138.398438 32.019531 138.742188 31.9375 139.097656 C 31.855469 139.449219 31.792969 139.808594 31.753906 140.167969 C 31.714844 140.53125 31.699219 140.890625 31.707031 141.253906 C 31.710938 141.617188 31.742188 141.980469 31.792969 142.339844 C 31.84375 142.699219 31.914062 143.054688 32.011719 143.402344 C 32.105469 143.753906 32.222656 144.097656 32.359375 144.433594 C 32.496094 144.769531 32.652344 145.097656 32.832031 145.414062 C 33.007812 145.730469 33.207031 146.035156 33.421875 146.328125 C 33.636719 146.617188 33.871094 146.894531 34.121094 147.160156 C 34.371094 147.421875 34.636719 147.671875 34.914062 147.902344 C 35.195312 148.132812 35.488281 148.34375 35.796875 148.539062 C 36.101562 148.734375 36.421875 148.90625 36.75 149.0625 C 37.078125 149.21875 37.414062 149.351562 37.757812 149.464844 C 37.917969 150.292969 38.148438 151.105469 38.449219 151.894531 C 38.75 152.6875 39.113281 153.445312 39.546875 154.171875 C 39.976562 154.898438 40.46875 155.585938 41.015625 156.226562 C 41.566406 156.871094 42.167969 157.460938 42.820312 158 C 43.472656 158.539062 44.164062 159.015625 44.898438 159.433594 C 45.636719 159.851562 46.398438 160.207031 47.195312 160.492188 C 47.992188 160.777344 48.804688 160.992188 49.640625 161.136719 C 50.472656 161.285156 51.3125 161.355469 52.15625 161.355469 C 53.003906 161.355469 53.84375 161.285156 54.675781 161.136719 C 55.507812 160.992188 56.324219 160.777344 57.117188 160.492188 C 57.914062 160.207031 58.679688 159.851562 59.414062 159.433594 C 60.148438 159.015625 60.84375 158.539062 61.492188 158 C 62.144531 157.460938 62.746094 156.871094 63.296875 156.226562 C 63.847656 155.585938 64.335938 154.898438 64.769531 154.171875 C 65.199219 153.445312 65.566406 152.6875 65.863281 151.894531 C 66.164062 151.105469 66.394531 150.292969 66.554688 149.464844 C 66.898438 149.351562 67.234375 149.21875 67.566406 149.0625 C 67.894531 148.90625 68.210938 148.734375 68.515625 148.539062 C 68.824219 148.34375 69.117188 148.132812 69.398438 147.902344 C 69.679688 147.671875 69.945312 147.421875 70.195312 147.160156 C 70.445312 146.894531 70.675781 146.617188 70.890625 146.328125 C 71.109375 146.035156 71.304688 145.730469 71.480469 145.414062 C 71.660156 145.097656 71.816406 144.769531 71.953125 144.433594 C 72.09375 144.097656 72.207031 143.753906 72.304688 143.402344 C 72.398438 143.054688 72.472656 142.699219 72.523438 142.339844 C 72.574219 141.980469 72.601562 141.617188 72.605469 141.253906 C 72.613281 140.890625 72.597656 140.53125 72.558594 140.167969 C 72.519531 139.808594 72.460938 139.449219 72.375 139.097656 C 72.292969 138.742188 72.1875 138.398438 72.0625 138.054688 C 71.9375 137.714844 71.789062 137.382812 71.625 137.0625 C 71.457031 136.738281 71.269531 136.429688 71.066406 136.128906 C 70.859375 135.828125 70.636719 135.542969 70.394531 135.273438 C 70.777344 134.84375 71.117188 134.382812 71.410156 133.886719 C 71.703125 133.390625 71.941406 132.875 72.132812 132.332031 C 72.324219 131.789062 72.460938 131.234375 72.542969 130.664062 C 72.625 130.097656 72.652344 129.527344 72.621094 128.953125 C 72.589844 128.378906 72.507812 127.8125 72.367188 127.253906 C 72.226562 126.699219 72.03125 126.160156 71.785156 125.640625 C 71.539062 125.121094 71.246094 124.632812 70.902344 124.167969 C 70.558594 123.707031 70.175781 123.285156 69.75 122.898438 C 69.839844 119.082031 70.464844 115.359375 71.632812 111.726562 C 72.800781 108.09375 74.460938 104.703125 76.613281 101.550781 C 77.824219 99.738281 78.816406 97.8125 79.585938 95.777344 C 80.359375 93.738281 80.894531 91.640625 81.1875 89.480469 C 81.484375 87.320312 81.53125 85.15625 81.332031 82.988281 C 81.132812 80.816406 80.695312 78.695312 80.015625 76.625 C 81.976562 73.957031 81.480469 75.070312 81.480469 44.371094 Z M 52.15625 26.777344 L 85.9375 37.039062 L 52.15625 47.304688 L 18.375 37.039062 Z M 51.304688 53.167969 C 52.507812 53.519531 51.011719 53.753906 75.617188 46.363281 L 75.617188 72.226562 C 75.617188 74.339844 76.933594 73.695312 30.164062 73.695312 C 29.972656 73.691406 29.785156 73.648438 29.609375 73.574219 C 29.429688 73.5 29.273438 73.394531 29.136719 73.257812 C 29 73.121094 28.894531 72.960938 28.816406 72.785156 C 28.742188 72.605469 28.703125 72.421875 28.699219 72.226562 L 28.699219 46.246094 Z M 63.886719 132.339844 L 40.429688 132.339844 C 40.039062 132.339844 39.664062 132.265625 39.304688 132.117188 C 38.945312 131.96875 38.628906 131.753906 38.355469 131.480469 C 38.078125 131.207031 37.867188 130.886719 37.71875 130.53125 C 37.570312 130.171875 37.496094 129.796875 37.496094 129.40625 C 37.496094 129.019531 37.570312 128.644531 37.71875 128.285156 C 37.867188 127.925781 38.078125 127.609375 38.355469 127.332031 C 38.628906 127.058594 38.945312 126.847656 39.304688 126.699219 C 39.664062 126.550781 40.039062 126.476562 40.429688 126.476562 L 63.886719 126.476562 C 64.273438 126.476562 64.648438 126.550781 65.007812 126.699219 C 65.367188 126.847656 65.683594 127.058594 65.960938 127.332031 C 66.234375 127.609375 66.445312 127.925781 66.59375 128.285156 C 66.742188 128.644531 66.820312 129.019531 66.820312 129.40625 C 66.820312 129.796875 66.742188 130.171875 66.59375 130.53125 C 66.445312 130.886719 66.234375 131.207031 65.960938 131.480469 C 65.683594 131.753906 65.367188 131.96875 65.007812 132.117188 C 64.648438 132.265625 64.273438 132.339844 63.886719 132.339844 Z M 43.859375 149.933594 L 60.457031 149.933594 C 60.152344 150.792969 59.726562 151.585938 59.179688 152.3125 C 58.628906 153.039062 57.984375 153.667969 57.242188 154.191406 C 56.5 154.71875 55.691406 155.121094 54.824219 155.398438 C 53.957031 155.671875 53.066406 155.8125 52.15625 155.8125 C 51.246094 155.8125 50.355469 155.671875 49.488281 155.398438 C 48.621094 155.121094 47.816406 154.71875 47.074219 154.191406 C 46.328125 153.667969 45.683594 153.039062 45.132812 152.3125 C 44.585938 151.585938 44.160156 150.792969 43.859375 149.933594 Z M 63.886719 144.070312 L 40.429688 144.070312 C 40.039062 144.070312 39.664062 143.996094 39.304688 143.84375 C 38.945312 143.695312 38.628906 143.484375 38.355469 143.210938 C 38.078125 142.933594 37.867188 142.617188 37.71875 142.257812 C 37.570312 141.898438 37.496094 141.523438 37.496094 141.136719 C 37.496094 140.746094 37.570312 140.375 37.71875 140.015625 C 37.867188 139.65625 38.078125 139.339844 38.355469 139.0625 C 38.628906 138.789062 38.945312 138.574219 39.304688 138.425781 C 39.664062 138.277344 40.039062 138.203125 40.429688 138.203125 L 63.886719 138.203125 C 64.273438 138.203125 64.648438 138.277344 65.007812 138.425781 C 65.367188 138.574219 65.683594 138.789062 65.960938 139.0625 C 66.234375 139.339844 66.445312 139.65625 66.59375 140.015625 C 66.742188 140.375 66.820312 140.746094 66.820312 141.136719 C 66.820312 141.523438 66.742188 141.898438 66.59375 142.257812 C 66.445312 142.617188 66.234375 142.933594 65.960938 143.210938 C 65.683594 143.484375 65.367188 143.695312 65.007812 143.84375 C 64.648438 143.996094 64.273438 144.070312 63.886719 144.070312 Z M 71.714844 98.324219 C 69.46875 101.636719 67.679688 105.183594 66.355469 108.960938 C 65.027344 112.738281 64.203125 116.621094 63.886719 120.609375 L 40.429688 120.609375 C 39.167969 99.792969 25.09375 96.359375 29.578125 79.558594 C 30.722656 79.558594 73.710938 79.558594 74.882812 79.558594 C 75.304688 81.144531 75.554688 82.757812 75.632812 84.398438 C 75.710938 86.039062 75.609375 87.667969 75.335938 89.285156 C 75.066406 90.90625 74.621094 92.476562 74.011719 94 C 73.402344 95.523438 72.636719 96.964844 71.714844 98.324219 Z M 71.714844 98.324219 " fill-opacity="1" fill-rule="nonzero"></path></g><path fill="#000000" d="M 14.039062 82.492188 L 8.171875 82.492188 C 7.785156 82.492188 7.410156 82.566406 7.050781 82.714844 C 6.691406 82.863281 6.375 83.074219 6.097656 83.347656 C 5.824219 83.625 5.613281 83.941406 5.464844 84.300781 C 5.316406 84.660156 5.242188 85.035156 5.242188 85.421875 C 5.242188 85.8125 5.316406 86.1875 5.464844 86.546875 C 5.613281 86.902344 5.824219 87.222656 6.097656 87.496094 C 6.375 87.769531 6.691406 87.984375 7.050781 88.132812 C 7.410156 88.28125 7.785156 88.355469 8.171875 88.355469 L 14.039062 88.355469 C 14.425781 88.355469 14.800781 88.28125 15.160156 88.132812 C 15.519531 87.984375 15.835938 87.769531 16.109375 87.496094 C 16.386719 87.222656 16.597656 86.902344 16.746094 86.546875 C 16.894531 86.1875 16.96875 85.8125 16.96875 85.421875 C 16.96875 85.035156 16.894531 84.660156 16.746094 84.300781 C 16.597656 83.941406 16.386719 83.625 16.109375 83.347656 C 15.835938 83.074219 15.519531 82.863281 15.160156 82.714844 C 14.800781 82.566406 14.425781 82.492188 14.039062 82.492188 Z M 14.039062 82.492188 " fill-opacity="1" fill-rule="nonzero"></path><path fill="#000000" d="M 17.671875 101.933594 L 12.601562 104.863281 C 12.261719 105.058594 11.972656 105.308594 11.734375 105.621094 C 11.496094 105.929688 11.328125 106.269531 11.226562 106.648438 C 11.125 107.023438 11.097656 107.40625 11.148438 107.792969 C 11.199219 108.179688 11.320312 108.542969 11.515625 108.882812 C 11.710938 109.21875 11.960938 109.507812 12.269531 109.746094 C 12.578125 109.984375 12.921875 110.152344 13.300781 110.253906 C 13.675781 110.355469 14.058594 110.382812 14.445312 110.332031 C 14.832031 110.28125 15.195312 110.160156 15.53125 109.964844 L 20.605469 107.035156 C 20.945312 106.839844 21.230469 106.585938 21.46875 106.277344 C 21.707031 105.96875 21.878906 105.625 21.980469 105.25 C 22.082031 104.875 22.109375 104.492188 22.058594 104.105469 C 22.007812 103.71875 21.886719 103.355469 21.691406 103.015625 C 21.496094 102.679688 21.246094 102.390625 20.933594 102.152344 C 20.625 101.914062 20.28125 101.742188 19.90625 101.640625 C 19.53125 101.539062 19.148438 101.515625 18.761719 101.566406 C 18.375 101.613281 18.011719 101.738281 17.671875 101.933594 Z M 17.671875 101.933594 " fill-opacity="1" fill-rule="nonzero"></path><path fill="#000000" d="M 91.714844 104.863281 L 86.640625 101.933594 C 86.300781 101.738281 85.941406 101.617188 85.554688 101.566406 C 85.167969 101.515625 84.785156 101.542969 84.40625 101.644531 C 84.03125 101.746094 83.6875 101.914062 83.378906 102.152344 C 83.070312 102.390625 82.820312 102.679688 82.625 103.019531 C 82.429688 103.355469 82.308594 103.71875 82.257812 104.105469 C 82.207031 104.492188 82.234375 104.875 82.335938 105.25 C 82.4375 105.625 82.605469 105.96875 82.84375 106.277344 C 83.082031 106.585938 83.371094 106.839844 83.707031 107.035156 L 88.78125 109.964844 C 89.121094 110.160156 89.480469 110.28125 89.867188 110.332031 C 90.257812 110.382812 90.636719 110.355469 91.015625 110.253906 C 91.390625 110.152344 91.734375 109.984375 92.042969 109.746094 C 92.351562 109.507812 92.605469 109.21875 92.796875 108.882812 C 92.992188 108.542969 93.113281 108.179688 93.164062 107.792969 C 93.214844 107.40625 93.191406 107.023438 93.089844 106.648438 C 92.984375 106.269531 92.816406 105.929688 92.578125 105.621094 C 92.339844 105.308594 92.050781 105.058594 91.714844 104.863281 Z M 91.714844 104.863281 " fill-opacity="1" fill-rule="nonzero"></path><path fill="#000000" d="M 96.140625 82.492188 L 90.277344 82.492188 C 89.886719 82.492188 89.515625 82.566406 89.15625 82.714844 C 88.796875 82.863281 88.476562 83.074219 88.203125 83.347656 C 87.929688 83.625 87.714844 83.941406 87.566406 84.300781 C 87.417969 84.660156 87.34375 85.035156 87.34375 85.421875 C 87.34375 85.8125 87.417969 86.1875 87.566406 86.546875 C 87.714844 86.902344 87.929688 87.222656 88.203125 87.496094 C 88.476562 87.769531 88.796875 87.984375 89.15625 88.132812 C 89.515625 88.28125 89.886719 88.355469 90.277344 88.355469 L 96.140625 88.355469 C 96.53125 88.355469 96.902344 88.28125 97.261719 88.132812 C 97.621094 87.984375 97.941406 87.769531 98.214844 87.496094 C 98.488281 87.222656 98.703125 86.902344 98.851562 86.546875 C 99 86.1875 99.074219 85.8125 99.074219 85.421875 C 99.074219 85.035156 99 84.660156 98.851562 84.300781 C 98.703125 83.941406 98.488281 83.625 98.214844 83.347656 C 97.941406 83.074219 97.621094 82.863281 97.261719 82.714844 C 96.902344 82.566406 96.53125 82.492188 96.140625 82.492188 Z M 96.140625 82.492188 " fill-opacity="1" fill-rule="nonzero"></path><g clip-path="url(#53a01741fe)"><path fill="#107ac0" d="M 339.804688 40.414062 C 339.601562 40.210938 339.378906 40.027344 339.140625 39.867188 C 338.898438 39.707031 338.648438 39.570312 338.382812 39.460938 C 338.117188 39.347656 337.84375 39.265625 337.558594 39.210938 C 337.277344 39.152344 336.992188 39.125 336.707031 39.125 C 336.417969 39.125 336.132812 39.15625 335.851562 39.210938 C 335.570312 39.269531 335.296875 39.351562 335.03125 39.464844 C 334.765625 39.574219 334.511719 39.710938 334.273438 39.871094 C 334.035156 40.035156 333.816406 40.214844 333.613281 40.421875 C 333.410156 40.625 333.226562 40.847656 333.066406 41.089844 C 332.90625 41.332031 332.773438 41.585938 332.664062 41.855469 C 332.554688 42.121094 332.472656 42.398438 332.414062 42.679688 C 332.359375 42.964844 332.332031 43.253906 332.332031 43.542969 C 332.332031 43.832031 332.359375 44.117188 332.414062 44.402344 C 332.472656 44.6875 332.554688 44.960938 332.664062 45.230469 C 332.773438 45.496094 332.910156 45.753906 333.070312 45.992188 C 333.230469 46.234375 333.410156 46.457031 333.613281 46.660156 L 345.363281 58.5 C 345.386719 58.523438 345.398438 58.554688 345.394531 58.585938 C 345.398438 58.617188 345.386719 58.644531 345.363281 58.667969 L 333.625 70.457031 C 333.421875 70.660156 333.238281 70.882812 333.078125 71.125 C 332.917969 71.367188 332.785156 71.621094 332.671875 71.886719 C 332.5625 72.152344 332.480469 72.429688 332.421875 72.714844 C 332.367188 72.996094 332.339844 73.285156 332.339844 73.574219 C 332.335938 73.863281 332.367188 74.148438 332.421875 74.433594 C 332.476562 74.71875 332.558594 74.996094 332.667969 75.261719 C 332.777344 75.53125 332.914062 75.785156 333.070312 76.023438 C 333.230469 76.265625 333.410156 76.488281 333.613281 76.695312 C 333.816406 76.898438 334.039062 77.082031 334.277344 77.242188 C 334.515625 77.40625 334.765625 77.542969 335.03125 77.652344 C 335.296875 77.765625 335.570312 77.847656 335.851562 77.90625 C 336.136719 77.960938 336.417969 77.992188 336.707031 77.992188 C 336.992188 77.992188 337.277344 77.964844 337.558594 77.910156 C 337.84375 77.851562 338.117188 77.769531 338.382812 77.660156 C 338.648438 77.550781 338.898438 77.414062 339.140625 77.253906 C 339.378906 77.09375 339.601562 76.910156 339.804688 76.707031 L 352.257812 64.199219 L 357.214844 59.152344 C 357.382812 58.980469 357.464844 58.773438 357.464844 58.53125 C 357.464844 58.289062 357.378906 58.082031 357.210938 57.914062 Z M 339.804688 40.414062 " fill-opacity="1" fill-rule="nonzero"></path></g><path fill="#107ac0" d="M 341.914062 59.152344 C 342.082031 58.980469 342.164062 58.773438 342.164062 58.53125 C 342.164062 58.289062 342.078125 58.082031 341.910156 57.914062 L 324.5 40.414062 C 324.296875 40.210938 324.078125 40.027344 323.835938 39.867188 C 323.597656 39.707031 323.34375 39.570312 323.078125 39.460938 C 322.8125 39.351562 322.539062 39.269531 322.257812 39.210938 C 321.976562 39.15625 321.691406 39.128906 321.40625 39.128906 C 321.117188 39.128906 320.832031 39.160156 320.550781 39.214844 C 320.269531 39.273438 319.996094 39.355469 319.730469 39.46875 C 319.464844 39.578125 319.214844 39.714844 318.976562 39.875 C 318.738281 40.035156 318.515625 40.21875 318.3125 40.425781 C 318.109375 40.628906 317.929688 40.851562 317.769531 41.09375 C 317.609375 41.335938 317.476562 41.589844 317.367188 41.855469 C 317.253906 42.125 317.171875 42.398438 317.117188 42.683594 C 317.058594 42.96875 317.03125 43.253906 317.03125 43.542969 C 317.03125 43.832031 317.058594 44.121094 317.117188 44.402344 C 317.171875 44.6875 317.253906 44.964844 317.363281 45.230469 C 317.476562 45.496094 317.609375 45.753906 317.769531 45.992188 C 317.929688 46.234375 318.109375 46.457031 318.3125 46.660156 L 330.0625 58.5 C 330.117188 58.558594 330.117188 58.613281 330.058594 58.667969 L 318.320312 70.457031 C 318.117188 70.660156 317.9375 70.882812 317.777344 71.125 C 317.617188 71.367188 317.480469 71.621094 317.371094 71.886719 C 317.261719 72.15625 317.175781 72.429688 317.121094 72.714844 C 317.0625 72.996094 317.035156 73.285156 317.035156 73.574219 C 317.035156 73.863281 317.0625 74.152344 317.117188 74.433594 C 317.171875 74.71875 317.253906 74.996094 317.363281 75.261719 C 317.472656 75.53125 317.609375 75.785156 317.769531 76.027344 C 317.925781 76.265625 318.109375 76.492188 318.3125 76.695312 C 318.515625 76.902344 318.734375 77.085938 318.972656 77.246094 C 319.210938 77.40625 319.464844 77.542969 319.730469 77.65625 C 319.996094 77.765625 320.269531 77.851562 320.550781 77.90625 C 320.832031 77.964844 321.117188 77.992188 321.402344 77.992188 C 321.691406 77.992188 321.976562 77.964844 322.257812 77.910156 C 322.539062 77.855469 322.8125 77.769531 323.078125 77.660156 C 323.34375 77.550781 323.597656 77.414062 323.835938 77.253906 C 324.078125 77.09375 324.296875 76.910156 324.5 76.707031 L 336.953125 64.199219 Z M 341.914062 59.152344 " fill-opacity="1" fill-rule="nonzero"></path></svg>